<svg width="25" height="25" viewBox="0 0 25 25" fill="none" xmlns="http://www.w3.org/2000/svg">
<path d="M23.9601 3.48183H21.021V1.55195C21.021 0.977598 20.5555 0.512085 19.9811 0.512085C19.4068 0.512085 18.9413 0.977598 18.9413 1.55195V3.48183H6.05872V1.55195C6.05872 0.977598 5.59321 0.512085 5.01886 0.512085C4.4445 0.512085 3.97899 0.977598 3.97899 1.55195V3.48183H1.03987C0.465513 3.48183 0 3.94734 0 4.52169V23.4482C0 24.0225 0.465513 24.488 1.03987 24.488H23.9601C24.5345 24.488 25 24.0225 25 23.4482V4.52169C25 3.94734 24.5345 3.48183 23.9601 3.48183ZM22.9203 5.56156V7.87203H2.07973V5.56156H22.9203ZM2.07973 22.4082V9.95176H22.9203V22.4083H2.07973V22.4082Z" fill="white"/>
<path d="M16.209 11.8681L10.3779 17.6992L8.79102 16.1124C8.3849 15.7064 7.72655 15.7064 7.32042 16.1124C6.91429 16.5185 6.91441 17.177 7.32042 17.5831L9.64256 19.9052C9.84556 20.1082 10.1118 20.2098 10.3779 20.2098C10.6439 20.2098 10.91 20.1082 11.1132 19.9052L17.6796 13.3389C18.0857 12.9328 18.0857 12.2744 17.6796 11.8682C17.2736 11.4622 16.6151 11.4621 16.209 11.8681Z" fill="white"/>
</svg>
