<svg width="25" height="25" viewBox="0 0 25 25" fill="none" xmlns="http://www.w3.org/2000/svg">
<path d="M23.8636 2.27273H17.4242V1.13636C17.4242 0.508788 16.9155 0 16.2879 0C15.6603 0 15.1515 0.508788 15.1515 1.13636V2.27273H9.84849V1.13636C9.84849 0.508788 9.3397 0 8.71212 0C8.08455 0 7.57576 0.508788 7.57576 1.13636V2.27273H1.13636C0.508788 2.27273 0 2.78152 0 3.40909V23.8636C0 24.4912 0.508788 25 1.13636 25H23.8636C24.4912 25 25 24.4912 25 23.8636V3.40909C25 2.78152 24.4913 2.27273 23.8636 2.27273ZM22.7273 4.54545V6.81818H2.27273V4.54545H22.7273ZM2.27273 22.7273V9.09091H22.7273V22.7273H2.27273Z" fill="white"/>
</svg>
