<svg width="25" height="25" viewBox="0 0 25 25" fill="none" xmlns="http://www.w3.org/2000/svg">
<g clip-path="url(#clip0_101_14)">
<path d="M17.8249 21.4213C17.7004 21.162 17.3892 21.0583 17.1299 21.1879L16.1652 21.6651V20.5137C16.1652 20.2284 15.9318 19.9951 15.6465 19.9951C15.3613 19.9951 15.1279 20.2284 15.1279 20.5137V21.6651L14.1632 21.1879C13.9039 21.0635 13.5979 21.1672 13.4682 21.4213C13.3437 21.6807 13.4475 21.9867 13.7016 22.1163L14.4692 22.4949L13.7016 22.8736C13.4423 22.998 13.3385 23.3092 13.4682 23.5685C13.5564 23.7501 13.7431 23.859 13.935 23.859C14.0128 23.859 14.0906 23.8434 14.1632 23.8071L15.1279 23.33V24.4814C15.1279 24.7666 15.3613 25 15.6465 25C15.9318 25 16.1652 24.7666 16.1652 24.4814V23.33L17.1299 23.8071C17.2025 23.8434 17.2803 23.859 17.3581 23.859C17.55 23.859 17.7315 23.7553 17.8249 23.5685C17.9494 23.3144 17.8456 23.0032 17.5915 22.8736L16.8239 22.4949L17.5915 22.1163C17.8508 21.9919 17.9545 21.6807 17.8249 21.4213Z" fill="white"/>
<path d="M9.00779 22.8787L8.24537 22.5001L9.00779 22.1215C9.26193 21.9919 9.36566 21.6807 9.24118 21.4265C9.11152 21.1724 8.80033 21.0687 8.54619 21.1931L7.60743 21.6599V20.5137C7.60743 20.2284 7.37404 19.9951 7.08878 19.9951C6.80352 19.9951 6.57013 20.2284 6.57013 20.5137V21.6599L5.63137 21.1931C5.37723 21.0635 5.06604 21.1672 4.93638 21.4265C4.80671 21.6807 4.91044 21.9919 5.16977 22.1215L5.93219 22.5001L5.16977 22.8787C4.91563 23.0084 4.8119 23.3196 4.93638 23.5737C5.02973 23.7553 5.21126 23.859 5.40316 23.859C5.48096 23.859 5.55876 23.8434 5.63656 23.8019L6.57532 23.3352V24.4814C6.57532 24.7666 6.80871 25 7.09397 25C7.37922 25 7.61262 24.7666 7.61262 24.4814V23.3352L8.55138 23.8019C8.62399 23.8382 8.70697 23.859 8.78477 23.859C8.97667 23.859 9.1582 23.7553 9.25156 23.5737C9.37085 23.3144 9.26712 23.0032 9.00779 22.8787Z" fill="white"/>
<path d="M3.97703 18.9473C3.74364 18.7762 3.42207 18.828 3.25092 19.0563L1.56011 21.3383C1.38895 21.5717 1.44082 21.8933 1.66903 22.0644C1.7572 22.137 1.86611 22.1682 1.97503 22.1682C2.13581 22.1682 2.29141 22.0956 2.39514 21.9555L4.08595 19.6734C4.2571 19.4401 4.20524 19.1185 3.97703 18.9473Z" fill="white"/>
<path d="M13.1053 18.9473C12.8719 18.7762 12.5503 18.828 12.3792 19.0563L10.6884 21.3383C10.5172 21.5717 10.5691 21.8933 10.7973 22.0644C10.8855 22.137 10.9944 22.1682 11.1033 22.1682C11.2641 22.1682 11.4197 22.0956 11.5234 21.9555L13.2142 19.6734C13.3854 19.4401 13.3335 19.1185 13.1053 18.9473Z" fill="white"/>
<path d="M21.6423 18.9473C21.4089 18.7762 21.0873 18.828 20.9162 19.0563L19.2254 21.3383C19.0542 21.5717 19.1061 21.8933 19.3343 22.0644C19.4225 22.137 19.5314 22.1682 19.6403 22.1682C19.8011 22.1682 19.9567 22.0956 20.0604 21.9555L21.7512 19.6734C21.9224 19.4401 21.8705 19.1185 21.6423 18.9473Z" fill="white"/>
<path d="M24.6244 7.01318C24.5051 6.84721 24.3028 6.76942 24.1005 6.81091C23.9242 6.84721 23.779 6.84721 23.5612 6.84721C21.3309 6.84721 19.5157 5.03193 19.5157 2.80173C19.5157 2.05487 19.6816 1.41174 20.0447 0.7738C20.1432 0.602645 20.1329 0.384813 20.0188 0.224031C19.9047 0.0632486 19.7076 -0.0249229 19.5105 0.00619626C17.1973 0.374439 15.465 2.20009 15.1901 4.45104C14.4329 4.16578 13.6238 4.01537 12.7939 4.01537C10.2577 4.01537 7.94974 5.41573 6.78277 7.62519C6.35748 7.50071 5.88032 7.43847 5.35648 7.43847C2.55576 7.43847 0.273697 9.72054 0.273697 12.5213C0.273697 15.322 2.55576 17.604 5.35648 17.604H12.7991C16.5594 17.604 19.6194 14.544 19.6194 10.789C19.6194 10.5711 19.609 10.3533 19.5883 10.1355C19.8009 10.1562 20.0188 10.1666 20.2418 10.1666C22.0986 10.1666 23.7531 9.19671 24.6659 7.57333C24.7592 7.39698 24.7437 7.17915 24.6244 7.01318ZM12.7939 16.5667H5.3513C3.12109 16.5667 1.30581 14.7515 1.30581 12.5213C1.30581 10.2911 3.12109 8.47578 5.3513 8.47578C5.92181 8.47578 6.43528 8.56913 6.82427 8.75066C6.94874 8.80771 7.09397 8.8129 7.22363 8.76104C7.35329 8.70917 7.45702 8.61063 7.51407 8.48615C8.43209 6.40117 10.5015 5.05268 12.7888 5.05268C15.548 5.05268 17.8664 6.98206 18.4369 9.55457C18.4421 9.59607 18.4472 9.63756 18.4628 9.67387C18.5354 10.0369 18.5717 10.4052 18.5717 10.789C18.5769 13.9735 15.9837 16.5667 12.7939 16.5667ZM20.2366 9.12928C19.941 9.12928 19.6609 9.10853 19.3912 9.06704C19.0852 7.92601 18.4836 6.87833 17.6122 6.01218C17.1817 5.5817 16.7046 5.21865 16.1911 4.92301C16.2534 3.31519 17.244 1.92521 18.691 1.3132C18.551 1.78517 18.4836 2.27271 18.4836 2.80173C18.4836 5.4676 20.5478 7.66668 23.167 7.86896C22.4149 8.67287 21.3724 9.12928 20.2366 9.12928Z" fill="white"/>
</g>
<defs>
<clipPath id="clip0_101_14">
<rect width="25" height="25" fill="white"/>
</clipPath>
</defs>
</svg>
