<svg width="25" height="25" viewBox="0 0 25 25" fill="none" xmlns="http://www.w3.org/2000/svg">
<path d="M12.5 8.83335C13.2252 8.83335 13.9341 9.0484 14.5371 9.4513C15.1401 9.8542 15.61 10.4269 15.8876 11.0968C16.1651 11.7668 16.2377 12.5041 16.0962 13.2154C15.9547 13.9266 15.6055 14.58 15.0927 15.0927C14.5799 15.6055 13.9266 15.9548 13.2153 16.0962C12.5041 16.2377 11.7668 16.1651 11.0968 15.8876C10.4268 15.6101 9.85417 15.1401 9.45127 14.5371C9.04837 13.9341 8.83333 13.2252 8.83333 12.5C8.83607 11.5284 9.22326 10.5974 9.9103 9.91033C10.5973 9.22329 11.5284 8.8361 12.5 8.83335ZM12.5 7.29169C11.4699 7.29169 10.4629 7.59715 9.6064 8.16945C8.74989 8.74175 8.08233 9.55518 7.68812 10.5069C7.29391 11.4586 7.19077 12.5058 7.39174 13.5161C7.5927 14.5264 8.08875 15.4545 8.81714 16.1829C9.54554 16.9113 10.4736 17.4073 11.4839 17.6083C12.4942 17.8092 13.5414 17.7061 14.4931 17.3119C15.4448 16.9177 16.2583 16.2501 16.8306 15.3936C17.4029 14.5371 17.7083 13.5301 17.7083 12.5C17.7083 11.1187 17.1596 9.79392 16.1828 8.81717C15.2061 7.84042 13.8813 7.29169 12.5 7.29169Z" fill="white"/>
<path d="M12.5 22.9167C12.2936 22.914 12.0965 22.8308 11.9506 22.6849C11.8046 22.5389 11.7214 22.3418 11.7188 22.1354V19.4479C11.7188 19.2407 11.8011 19.042 11.9476 18.8955C12.0941 18.749 12.2928 18.6667 12.5 18.6667C12.7072 18.6667 12.9059 18.749 13.0524 18.8955C13.1989 19.042 13.2812 19.2407 13.2812 19.4479V22.1354C13.2786 22.3418 13.1954 22.5389 13.0494 22.6849C12.9035 22.8308 12.7064 22.914 12.5 22.9167Z" fill="white"/>
<path d="M22.9167 12.5C22.914 12.7064 22.8308 12.9035 22.6849 13.0494C22.5389 13.1954 22.3418 13.2786 22.1354 13.2812H19.4479C19.2407 13.2812 19.042 13.1989 18.8955 13.0524C18.749 12.9059 18.6667 12.7072 18.6667 12.5C18.6667 12.2928 18.749 12.0941 18.8955 11.9476C19.042 11.8011 19.2407 11.7188 19.4479 11.7188H22.1354C22.3418 11.7214 22.5389 11.8046 22.6849 11.9506C22.8308 12.0965 22.914 12.2936 22.9167 12.5Z" fill="white"/>
<path d="M6.33334 12.5C6.33065 12.7064 6.24747 12.9035 6.10154 13.0494C5.95561 13.1954 5.75845 13.2786 5.55209 13.2812H2.86459C2.65739 13.2812 2.45868 13.1989 2.31217 13.0524C2.16565 12.9059 2.08334 12.7072 2.08334 12.5C2.08334 12.2928 2.16565 12.0941 2.31217 11.9476C2.45868 11.8011 2.65739 11.7188 2.86459 11.7188H5.55209C5.75845 11.7214 5.95561 11.8046 6.10154 11.9506C6.24747 12.0965 6.33065 12.2936 6.33334 12.5Z" fill="white"/>
<path d="M12.5 6.33331C12.2936 6.33062 12.0965 6.24744 11.9506 6.10151C11.8046 5.95557 11.7214 5.75842 11.7188 5.55206V2.86456C11.7188 2.65736 11.8011 2.45865 11.9476 2.31214C12.0941 2.16562 12.2928 2.08331 12.5 2.08331C12.7072 2.08331 12.9059 2.16562 13.0524 2.31214C13.1989 2.45865 13.2812 2.65736 13.2812 2.86456V5.55206C13.2786 5.75842 13.1954 5.95557 13.0494 6.10151C12.9035 6.24744 12.7064 6.33062 12.5 6.33331Z" fill="white"/>
<path d="M5.12499 19.8646C4.97869 19.7181 4.89651 19.5195 4.89651 19.3125C4.89651 19.1055 4.97869 18.9069 5.12499 18.7604L7.02083 16.8646C7.09265 16.7909 7.1785 16.7323 7.27331 16.6923C7.36813 16.6523 7.47 16.6317 7.57291 16.6317C7.67582 16.6317 7.77769 16.6523 7.87251 16.6923C7.96733 16.7323 8.05318 16.7909 8.12499 16.8646C8.2713 17.0111 8.35347 17.2096 8.35347 17.4167C8.35347 17.6237 8.2713 17.8223 8.12499 17.9688L6.24999 19.8646C6.17712 19.9402 6.08974 20.0004 5.99309 20.0414C5.89645 20.0825 5.79251 20.1037 5.68749 20.1037C5.58248 20.1037 5.47854 20.0825 5.38189 20.0414C5.28525 20.0004 5.19787 19.9402 5.12499 19.8646Z" fill="white"/>
<path d="M19.8542 19.8646C19.7077 20.0109 19.5091 20.0931 19.3021 20.0931C19.0951 20.0931 18.8965 20.0109 18.75 19.8646L16.8542 17.9688C16.7162 17.8207 16.6411 17.6248 16.6446 17.4224C16.6482 17.22 16.7302 17.0269 16.8733 16.8837C17.0165 16.7406 17.2096 16.6586 17.412 16.655C17.6144 16.6515 17.8102 16.7266 17.9583 16.8646L19.8542 18.75C19.9282 18.8227 19.987 18.9095 20.0271 19.0051C20.0672 19.1008 20.0879 19.2035 20.0879 19.3073C20.0879 19.4111 20.0672 19.5138 20.0271 19.6095C19.987 19.7051 19.9282 19.7919 19.8542 19.8646Z" fill="white"/>
<path d="M8.12499 8.13542C7.97851 8.28172 7.77994 8.3639 7.57291 8.3639C7.36588 8.3639 7.16731 8.28172 7.02083 8.13542L5.12499 6.25C4.97869 6.10352 4.89651 5.90495 4.89651 5.69792C4.89651 5.49088 4.97869 5.29232 5.12499 5.14583C5.19638 5.06821 5.28293 5.00606 5.37929 4.96323C5.47566 4.9204 5.57979 4.8978 5.68524 4.89682C5.79069 4.89585 5.89522 4.91652 5.99236 4.95756C6.0895 4.9986 6.17719 5.05913 6.24999 5.13542L8.12499 7.03125C8.2713 7.17774 8.35347 7.3763 8.35347 7.58333C8.35347 7.79037 8.2713 7.98893 8.12499 8.13542Z" fill="white"/>
<path d="M16.8542 8.13541C16.7805 8.06359 16.7219 7.97774 16.6819 7.88292C16.6419 7.78811 16.6213 7.68624 16.6213 7.58333C16.6213 7.48042 16.6419 7.37855 16.6819 7.28373C16.7219 7.18891 16.7805 7.10306 16.8542 7.03125L18.75 5.13541C18.8218 5.06171 18.9077 5.00313 19.0025 4.96313C19.0973 4.92313 19.1992 4.90253 19.3021 4.90253C19.405 4.90253 19.5069 4.92313 19.6017 4.96313C19.6965 5.00313 19.7823 5.06171 19.8542 5.13541C20.0005 5.2819 20.0826 5.48046 20.0826 5.6875C20.0826 5.89453 20.0005 6.09309 19.8542 6.23958L17.9583 8.13541C17.8118 8.28171 17.6133 8.36389 17.4062 8.36389C17.1992 8.36389 17.0006 8.28171 16.8542 8.13541Z" fill="white"/>
</svg>
