<svg width="35" height="35" viewBox="0 0 35 35" fill="none" xmlns="http://www.w3.org/2000/svg">
<path d="M35 18.5C35 28.165 31 34 17.5 34C3.5 34 0 28.165 0 18.5C0 8.83502 7.83502 1 17.5 1C27.165 1 35 8.83502 35 18.5Z" fill="#949494"/>
<path d="M26.3554 25.286L21.6142 22.9156C21.1671 22.6918 20.8891 22.2422 20.8891 21.7419V20.0639C21.0028 19.9249 21.1224 19.7666 21.246 19.5919C21.8609 18.7234 22.3537 17.7566 22.7121 16.7138C23.4123 16.3927 23.867 15.7004 23.867 14.9187V12.9335C23.867 12.4555 23.6883 11.9925 23.3707 11.6307V8.99084C23.3984 8.71787 23.5076 7.09297 22.3324 5.75245C21.313 4.58961 19.6588 4 17.415 4C15.1712 4 13.517 4.58961 12.4976 5.75195C11.3224 7.09247 11.4316 8.71787 11.4593 8.99084V11.6307C11.1417 11.9925 10.963 12.4555 10.963 12.9335V14.9187C10.963 15.5227 11.2375 16.086 11.706 16.4617C12.1606 18.2618 13.112 19.6182 13.4446 20.0535V21.6957C13.4446 22.1762 13.1825 22.6169 12.7612 22.8472L8.33362 25.2622C6.89384 26.0478 6 27.5536 6 29.1934V30.8004C6 33.1559 13.4669 33.7783 17.415 33.7783C21.3631 33.7783 28.83 33.1559 28.83 30.8004V29.2902C28.83 27.5839 27.8816 26.0493 26.3554 25.286Z" fill="black"/>
</svg>
