<svg width="566" height="566" viewBox="0 0 566 566" fill="none" xmlns="http://www.w3.org/2000/svg">
<path d="M352.28 548.749L357.707 458.319L372.692 432.739C372.692 432.739 338.586 446.691 281.487 446.691C224.387 446.691 190.798 432.997 190.798 432.997L207.592 460.901L213.533 548.749C213.533 558.167 244.592 565.801 282.907 565.801C321.22 565.801 352.28 558.167 352.28 548.749ZM335.161 126.454L346.552 81.429L409.633 15.053L393.007 0.891998L326.223 71.599L312.997 125.392C303.043 125.058 293.084 124.893 283.124 124.895C212.788 124.895 155.769 132.911 155.769 142.797C155.769 152.684 212.788 160.699 283.124 160.699C353.459 160.699 410.477 152.684 410.477 142.797C410.477 135.517 379.553 129.251 335.161 126.454Z" fill="#FF4500"/>
<path d="M328.535 151.669C328.535 151.669 326.068 152.222 318.811 152.253C311.552 152.283 306.398 152.206 304.345 150.336C303.793 149.834 303.491 148.837 303.494 148.162C303.5 146.877 304.412 146.12 305.574 145.646L306.673 147.37C306.195 147.535 305.922 147.73 305.921 147.938C305.917 148.914 313.343 149.582 319.023 149.51C324.704 149.44 331.568 148.972 331.574 148.01C331.574 147.719 331.055 147.445 330.152 147.229L331.246 145.517C332.718 145.974 334.003 146.857 334 148.385C333.986 150.983 330.68 151.378 328.535 151.669Z" fill="white"/>
<path d="M163.5 223H401L380.5 394H181.5L163.5 223Z" fill="white"/>
<path d="M409.509 15.184C411.095 13.352 408.688 8.66599 404.133 4.71899C399.576 0.773987 394.596 -0.940013 393.007 0.891987C391.42 2.72399 393.828 7.40999 398.385 11.355C402.94 15.301 407.922 17.017 409.509 15.184ZM349.246 327.865C347.751 313.481 380.708 292.649 372.25 291.982C354.042 293.023 344.98 313.32 335.819 334.578C332.462 342.369 320.975 375.591 313.441 371.501C305.909 367.413 323.206 340.094 328.054 323.87C322.46 327.972 301.945 343.911 296.658 328.984C288.158 336.203 269.995 340.114 272.044 321.151C267.522 329.161 257.373 340.344 245.191 335.697C229.193 329.596 254.461 278.635 260.744 281.206C267.028 283.776 259.476 295.385 257.498 299.893C253.148 309.814 248.123 322.286 251.48 324.839C257.231 329.213 272.881 308.292 273.229 307.832C276.156 303.965 284.495 278.666 291.216 281.571C297.937 284.476 274.452 317.879 283.233 324.508C285.004 325.846 292.25 323.683 296.658 318.914C299.51 315.829 298.529 308.996 308.036 286.324C317.543 263.653 326.016 235.419 332.536 237.57C339.056 239.72 333.682 254.211 331.343 259.613C320.367 284.967 301.387 326.854 310.338 323.683C319.289 320.513 323.95 320.327 332.715 310.07C341.48 299.813 341.076 282.918 346.918 283.277C352.762 283.637 351.781 289.054 350.364 293.179C356.114 286.599 377.62 272.741 382.812 286.466C388.962 302.715 352.043 326.186 361.248 324.989C370.223 323.822 384.763 314.613 390.971 306.24L408.059 152.614C408.059 152.614 390.864 166.844 281.47 166.844C172.075 166.844 156.659 152.91 156.659 152.91L171.207 293.134C178.929 271.187 197.266 226.795 226.17 228.285C239.318 228.963 256.87 254.28 241.835 255.138C235.471 255.5 234.825 242.501 227.289 240.592C221.851 239.214 214.28 243.635 209.387 248.425C199.629 257.975 178.642 295.654 181.415 314.439C184.948 338.388 214.463 306.117 219.457 296.536C222.974 289.787 225.35 269.791 233.042 271.889C240.735 273.987 232.371 294.623 226.795 312.868C220.531 333.355 217.238 354.966 209.387 352.48C201.535 349.996 214.325 323.548 213.862 318.914C206.482 325.723 192.886 342.961 175.492 334.429L184.527 421.507C184.527 421.507 208.54 440.48 280.877 440.48C353.214 440.48 378.116 421.803 378.116 421.803L389.335 320.946C380.156 329.884 351.106 345.756 349.246 327.865Z" fill="#FF4500"/>
</svg>
