<svg width="25" height="25" viewBox="0 0 25 25" fill="none" xmlns="http://www.w3.org/2000/svg">
<path d="M7.33127 11.4854V10.3438H4.23645V7.24893H3.0949V10.3438H0V11.4854H3.0949V14.5801H4.23645V11.4854H7.33127Z" fill="#949494"/>
<path d="M19.74 14.1508H11.1003C8.19994 14.1508 5.84027 16.5105 5.84027 19.4108V22.4495H25V19.4108C25 16.5105 22.6403 14.1508 19.74 14.1508ZM23.8585 21.308H6.98182V19.4109C6.98182 17.14 8.82931 15.2924 11.1003 15.2924H19.7399C22.0108 15.2924 23.8584 17.14 23.8584 19.4109L23.8585 21.308Z" fill="#949494"/>
<path d="M15.4202 13.6103C18.4693 13.6103 20.95 11.1296 20.95 8.08044C20.95 5.03128 18.4693 2.55054 15.4202 2.55054C12.371 2.55054 9.89026 5.03121 9.89026 8.08044C9.89026 11.1297 12.371 13.6103 15.4202 13.6103ZM15.4202 3.69217C17.8399 3.69217 19.8084 5.66073 19.8084 8.08052C19.8084 10.5003 17.8399 12.4689 15.4202 12.4689C13.0004 12.4689 11.0318 10.5002 11.0318 8.08052C11.0318 5.66081 13.0004 3.69217 15.4202 3.69217Z" fill="#949494"/>
</svg>
