<svg width="25" height="25" viewBox="0 0 25 25" fill="none" xmlns="http://www.w3.org/2000/svg">
<path d="M22.7101 21.3709L16.1111 14.7618C17.412 13.2003 18.1945 11.2048 18.1945 9.02533C18.1945 4.05312 14.1172 0.0102539 9.10196 0.0102539C4.08669 0.0102539 0 4.05784 0 9.03005C0 14.0023 4.07726 18.0451 9.09253 18.0451C11.2231 18.0451 13.1839 17.3139 14.7394 16.0921L21.362 22.7201C21.7485 23.107 22.3236 23.107 22.7101 22.7201C23.0966 22.3333 23.0966 21.7578 22.7101 21.3709ZM1.93258 9.03005C1.93258 5.12399 5.14725 1.94913 9.09253 1.94913C13.0378 1.94913 16.2525 5.12399 16.2525 9.03005C16.2525 12.9361 13.0378 16.111 9.09253 16.111C5.14725 16.111 1.93258 12.9314 1.93258 9.03005Z" fill="#949494"/>
</svg>
