<svg width="20" height="20" viewBox="0 0 20 20" fill="none" xmlns="http://www.w3.org/2000/svg">
<path fill-rule="evenodd" clip-rule="evenodd" d="M9.99999 17.5C14.1421 17.5 17.5 14.1421 17.5 9.99999C17.5 5.85786 14.1421 2.49999 9.99999 2.49999C5.85786 2.49999 2.49999 5.85786 2.49999 9.99999C2.49999 14.1421 5.85786 17.5 9.99999 17.5ZM9.99999 18.3333C14.6024 18.3333 18.3333 14.6024 18.3333 9.99999C18.3333 5.39761 14.6024 1.66666 9.99999 1.66666C5.39761 1.66666 1.66666 5.39761 1.66666 9.99999C1.66666 14.6024 5.39761 18.3333 9.99999 18.3333Z" fill="black"/>
<path fill-rule="evenodd" clip-rule="evenodd" d="M6.75909 13.2409C6.59638 13.0782 6.59638 12.8144 6.75909 12.6517L12.6517 6.75909C12.8144 6.59638 13.0782 6.59638 13.2409 6.75909C13.4036 6.92184 13.4036 7.18563 13.2409 7.34834L7.34838 13.2409C7.18563 13.4036 6.92184 13.4036 6.75909 13.2409Z" fill="black"/>
<path fill-rule="evenodd" clip-rule="evenodd" d="M6.75909 6.75909C6.92184 6.59638 7.18563 6.59638 7.34834 6.75909L13.2409 12.6517C13.4036 12.8144 13.4036 13.0782 13.2409 13.2409C13.0782 13.4036 12.8144 13.4036 12.6517 13.2409L6.75909 7.34834C6.59638 7.18563 6.59638 6.92179 6.75909 6.75909Z" fill="black"/>
</svg>
