<svg width="20" height="20" viewBox="0 0 20 20" fill="none" xmlns="http://www.w3.org/2000/svg">
<path d="M10 1.66666C8.90566 1.66666 7.82203 1.8822 6.81098 2.30099C5.79993 2.71978 4.88128 3.33361 4.10745 4.10743C2.54465 5.67024 1.66668 7.78985 1.66668 9.99999C1.65939 11.9243 2.32567 13.7904 3.55001 15.275L1.88334 16.9417C1.76771 17.0588 1.68938 17.2077 1.65824 17.3693C1.62709 17.531 1.64453 17.6982 1.70834 17.85C1.77756 17.9999 1.88976 18.1259 2.03072 18.212C2.17167 18.298 2.33501 18.3403 2.50001 18.3333H10C12.2101 18.3333 14.3298 17.4553 15.8926 15.8925C17.4554 14.3297 18.3333 12.2101 18.3333 9.99999C18.3333 7.78985 17.4554 5.67024 15.8926 4.10743C14.3298 2.54463 12.2101 1.66666 10 1.66666V1.66666ZM10 16.6667H4.50834L5.28334 15.8917C5.43855 15.7355 5.52567 15.5243 5.52567 15.3042C5.52567 15.084 5.43855 14.8728 5.28334 14.7167C4.19217 13.6267 3.51266 12.1921 3.36059 10.6573C3.20852 9.12253 3.5933 7.58249 4.44937 6.29959C5.30544 5.01669 6.57984 4.07029 8.05544 3.62163C9.53104 3.17298 11.1166 3.24983 12.5419 3.83908C13.9672 4.42834 15.1441 5.49355 15.872 6.85323C16.6 8.21291 16.8341 9.78294 16.5343 11.2958C16.2345 12.8087 15.4194 14.1709 14.228 15.1502C13.0365 16.1295 11.5423 16.6654 10 16.6667V16.6667Z" fill="black"/>
</svg>
