<svg width="20" height="20" viewBox="0 0 20 20" fill="none" xmlns="http://www.w3.org/2000/svg">
<path d="M19.0909 1.81818H13.9394V0.909091C13.9394 0.40703 13.5324 0 13.0303 0C12.5282 0 12.1212 0.40703 12.1212 0.909091V1.81818H7.87879V0.909091C7.87879 0.40703 7.47176 0 6.9697 0C6.46764 0 6.06061 0.40703 6.06061 0.909091V1.81818H0.909091C0.40703 1.81818 0 2.22521 0 2.72727V19.0909C0 19.593 0.40703 20 0.909091 20H19.0909C19.593 20 20 19.593 20 19.0909V2.72727C20 2.22521 19.593 1.81818 19.0909 1.81818ZM18.1818 3.63636V5.45455H1.81818V3.63636H18.1818ZM1.81818 18.1818V7.27273H18.1818V18.1818H1.81818Z" fill="#FF4500"/>
</svg>
