<svg width="20" height="20" viewBox="0 0 20 20" fill="none" xmlns="http://www.w3.org/2000/svg">
<path d="M19.9669 6.2473C19.675 3.03403 17.4006 0.702747 14.5543 0.702747C12.658 0.702747 10.9218 1.72319 9.9448 3.35867C8.97667 1.70204 7.31158 0.702362 5.4457 0.702362C2.59977 0.702362 0.325019 3.03365 0.033464 6.24691C0.0103857 6.38884 -0.0842351 7.13581 0.203474 8.35396C0.618113 10.111 1.57586 11.7091 2.97248 12.9746L9.94019 19.2977L17.0275 12.975C18.4241 11.7092 19.3819 10.1114 19.7965 8.35396C20.0842 7.13619 19.9896 6.38923 19.9669 6.2473ZM19.0476 8.17779C18.6692 9.7825 17.7918 11.2445 16.5129 12.403L9.9448 18.263L3.48943 12.4046C2.2082 11.2437 1.33123 9.78212 0.952363 8.17741C0.68004 7.02465 0.791969 6.37346 0.792354 6.36923L0.798123 6.33038C1.04814 3.51522 3.00248 1.47164 5.4457 1.47164C7.2485 1.47164 8.83551 2.57939 9.58863 4.36219L9.94288 5.20185L10.2971 4.36219C11.0383 2.6067 12.7092 1.47202 14.5547 1.47202C16.9975 1.47202 18.9522 3.5156 19.2073 6.3673C19.208 6.37346 19.32 7.02503 19.0476 8.17779Z" fill="black"/>
</svg>
