<svg width="20" height="20" viewBox="0 0 20 20" fill="none" xmlns="http://www.w3.org/2000/svg">
<path d="M10 0C4.47734 0 0 4.47734 0 10C0 15.5227 4.47734 20 10 20C15.5227 20 20 15.5227 20 10C20 4.47734 15.5227 0 10 0ZM10 19C5.03734 19 1 14.9627 1 10C1 5.03734 5.03734 1 10 1C14.9627 1 19 5.03734 19 10C19 14.9627 14.9627 19 10 19Z" fill="black"/>
<path d="M12.471 4.671C11.9297 4.20299 11.232 3.96866 10.378 3.96866H10.206C9.32035 3.96866 8.56535 4.24499 7.94035 4.79667C7.2527 5.41202 6.90903 6.23432 6.90903 7.26534C6.90903 7.43233 6.95602 7.56233 7.04969 7.656C7.14336 7.73999 7.2577 7.776 7.39336 7.76534C7.51836 7.76534 7.6277 7.71835 7.72137 7.62467C7.82536 7.521 7.8777 7.396 7.8777 7.24967C7.8777 6.66667 8.01305 6.16167 8.28403 5.73401C8.67969 5.13034 9.32004 4.82768 10.206 4.82768C10.956 4.82768 11.5234 5.03069 11.909 5.43702C12.2317 5.771 12.3984 6.20268 12.409 6.73401C12.409 7.20268 12.31 7.61967 12.112 7.98401C11.8827 8.401 11.4714 8.85901 10.8777 9.35901C10.3777 9.76534 10.0287 10.2183 9.83071 10.7183C9.63239 11.1977 9.53371 11.8073 9.53371 12.5464C9.53371 12.6927 9.58071 12.812 9.67438 12.9057C9.76805 12.9897 9.88239 13.0307 10.0181 13.0307C10.1431 13.0307 10.2524 12.9897 10.3461 12.9057C10.45 12.812 10.5024 12.6927 10.5024 12.5464C10.5024 11.8177 10.5907 11.2553 10.768 10.8587C10.9447 10.4837 11.2887 10.088 11.7994 9.67104C12.362 9.19237 12.7681 8.7287 13.0181 8.28038C13.2574 7.84272 13.3774 7.3537 13.3774 6.81171C13.3773 5.89565 13.075 5.18167 12.471 4.671Z" fill="black"/>
<path d="M10 16C10.5523 16 11 15.5523 11 15C11 14.4477 10.5523 14 10 14C9.44772 14 9 14.4477 9 15C9 15.5523 9.44772 16 10 16Z" fill="black"/>
</svg>
