<svg width="20" height="20" viewBox="0 0 20 20" fill="none" xmlns="http://www.w3.org/2000/svg">
<path d="M15.9422 12.4887C14.6167 12.4887 13.4494 13.179 12.7808 14.2189L7.52014 11.4548C7.70895 11.0072 7.81343 10.5156 7.81343 10C7.81343 9.48452 7.70895 8.9929 7.52014 8.54525L12.7808 5.78116C13.4494 6.82108 14.6167 7.51136 15.9422 7.51136C18.0131 7.51136 19.6979 5.82658 19.6979 3.75574C19.6979 1.68477 18.0131 0 15.9422 0C13.8714 0 12.1866 1.68477 12.1866 3.75566C12.1866 4.27123 12.2911 4.7628 12.4799 5.21045L7.21919 7.97454C6.55059 6.93462 5.38332 6.24434 4.05781 6.24434C1.98697 6.24434 0.3022 7.92912 0.3022 10C0.3022 12.0709 1.98697 13.7557 4.05781 13.7557C5.38332 13.7557 6.55063 13.0654 7.21919 12.0255L12.4799 14.7895C12.2911 15.2372 12.1866 15.7288 12.1866 16.2443C12.1866 18.3152 13.8714 20 15.9422 20C18.0131 20 19.6979 18.3152 19.6979 16.2443C19.6979 14.1735 18.0131 12.4887 15.9422 12.4887ZM15.9422 0.645161C17.6573 0.645161 19.0527 2.04052 19.0527 3.75566C19.0527 5.47075 17.6573 6.86611 15.9422 6.86611C14.2271 6.86611 12.8317 5.47075 12.8317 3.75566C12.8317 2.04052 14.2271 0.645161 15.9422 0.645161ZM4.05777 13.1105C2.34267 13.1105 0.947319 11.7151 0.947319 10C0.947319 8.28486 2.34267 6.88951 4.05777 6.88951C5.77287 6.88951 7.16822 8.28486 7.16822 10C7.16822 11.7151 5.77287 13.1105 4.05777 13.1105ZM15.9422 19.3548C14.2271 19.3548 12.8317 17.9595 12.8317 16.2443C12.8317 14.5292 14.2271 13.1339 15.9422 13.1339C17.6573 13.1339 19.0527 14.5292 19.0527 16.2443C19.0527 17.9595 17.6573 19.3548 15.9422 19.3548Z" fill="black"/>
</svg>
