<svg width="20" height="20" viewBox="0 0 20 20" fill="none" xmlns="http://www.w3.org/2000/svg">
<path d="M9.99994 0C4.48603 0 0.000297546 4.48597 0.000297546 9.99988C0.000297546 15.514 4.48603 20 9.99994 20C15.5138 20 19.9998 15.514 19.9998 9.99988C19.9998 4.48597 15.5136 0 9.99994 0ZM9.99994 18.5542C5.28337 18.5542 1.44582 14.7167 1.44582 9.99988C1.44582 5.28307 5.28313 1.44577 9.99994 1.44577C14.7167 1.44577 18.554 5.28307 18.554 9.99988C18.554 14.7167 14.7167 18.5542 9.99994 18.5542Z" fill="#FF4500"/>
<path d="M12.8933 10.9203C12.8895 10.9203 12.8861 10.9203 12.8823 10.9203L10.7228 10.9526V5.30113C10.7228 4.90186 10.3991 4.57825 9.99988 4.57825C9.6006 4.57825 9.27699 4.90186 9.27699 5.30113V11.6866C9.27699 11.688 9.27747 11.6895 9.27747 11.6909C9.27747 11.6933 9.27699 11.6955 9.27699 11.6974C9.27747 11.7268 9.28302 11.7545 9.28687 11.7827C9.28928 11.8003 9.28952 11.8184 9.2929 11.8357C9.2994 11.8668 9.31025 11.8957 9.32061 11.9249C9.32591 11.9401 9.32928 11.956 9.33555 11.9704C9.34808 12.0001 9.36494 12.0271 9.38109 12.0548C9.38856 12.0671 9.3941 12.0806 9.40205 12.0926C9.42036 12.1194 9.44229 12.1432 9.46398 12.1676C9.47314 12.1777 9.4806 12.1892 9.49024 12.1991C9.51362 12.2223 9.53988 12.2418 9.56615 12.2618C9.57675 12.2697 9.58615 12.2794 9.59699 12.2868C9.62542 12.3061 9.65651 12.3213 9.68759 12.3362C9.69843 12.3413 9.70807 12.3485 9.71916 12.3531C9.7553 12.3683 9.79385 12.3789 9.83289 12.3883C9.84012 12.39 9.84687 12.3933 9.85434 12.3948C9.90108 12.4042 9.94952 12.4095 9.99915 12.4095C10.0028 12.4095 10.0066 12.4095 10.0102 12.4095L12.9037 12.3661C13.3027 12.3601 13.6215 12.0314 13.6157 11.6324C13.6102 11.237 13.2875 10.9203 12.8933 10.9203Z" fill="#FF4500"/>
</svg>
