<svg width="20" height="20" viewBox="0 0 20 20" fill="none" xmlns="http://www.w3.org/2000/svg">
<g clip-path="url(#clip0_101_14)">
<path d="M14.2599 17.137C14.1603 16.9296 13.9114 16.8466 13.7039 16.9503L12.9322 17.332V16.4109C12.9322 16.1827 12.7454 15.996 12.5172 15.996C12.289 15.996 12.1023 16.1827 12.1023 16.4109V17.332L11.3306 16.9503C11.1231 16.8507 10.8783 16.9337 10.7746 17.137C10.675 17.3445 10.758 17.5893 10.9613 17.693L11.5754 17.9959L10.9613 18.2988C10.7538 18.3984 10.6708 18.6473 10.7746 18.8548C10.8451 19 10.9945 19.0871 11.148 19.0871C11.2102 19.0871 11.2725 19.0747 11.3306 19.0457L12.1023 18.6639V19.5851C12.1023 19.8133 12.289 20 12.5172 20C12.7454 20 12.9322 19.8133 12.9322 19.5851V18.6639L13.7039 19.0457C13.762 19.0747 13.8242 19.0871 13.8865 19.0871C14.04 19.0871 14.1852 19.0042 14.2599 18.8548C14.3595 18.6515 14.2765 18.4025 14.0732 18.2988L13.4591 17.9959L14.0732 17.693C14.2807 17.5934 14.3636 17.3445 14.2599 17.137Z" fill="#FF4500"/>
<path d="M7.20623 18.303L6.5963 18.0001L7.20623 17.6972C7.40954 17.5934 7.49253 17.3445 7.39295 17.1412C7.28922 16.9379 7.04026 16.8549 6.83695 16.9545L6.08594 17.3279V16.4109C6.08594 16.1827 5.89923 15.996 5.67102 15.996C5.44282 15.996 5.2561 16.1827 5.2561 16.4109V17.3279L4.50509 16.9545C4.30178 16.8507 4.05283 16.9337 3.9491 17.1412C3.84537 17.3445 3.92835 17.5934 4.13581 17.6972L4.74575 18.0001L4.13581 18.303C3.9325 18.4067 3.84952 18.6556 3.9491 18.8589C4.02378 19.0042 4.16901 19.0871 4.32253 19.0871C4.38477 19.0871 4.447 19.0747 4.50924 19.0415L5.26025 18.6681V19.5851C5.26025 19.8133 5.44696 20 5.67517 20C5.90338 20 6.09009 19.8133 6.09009 19.5851V18.6681L6.8411 19.0415C6.89919 19.0706 6.96558 19.0871 7.02782 19.0871C7.18134 19.0871 7.32656 19.0042 7.40124 18.8589C7.49668 18.6515 7.41369 18.4025 7.20623 18.303Z" fill="#FF4500"/>
<path d="M3.18162 15.1578C2.99491 15.0209 2.73766 15.0624 2.60073 15.2449L1.24809 17.0706C1.11117 17.2573 1.15266 17.5146 1.33522 17.6515C1.40576 17.7096 1.49289 17.7345 1.58003 17.7345C1.70865 17.7345 1.83313 17.6764 1.91611 17.5644L3.26876 15.7387C3.40568 15.552 3.36419 15.2947 3.18162 15.1578Z" fill="#FF4500"/>
<path d="M10.4842 15.1578C10.2975 15.0209 10.0403 15.0624 9.90334 15.2449L8.55071 17.0706C8.41379 17.2573 8.45528 17.5146 8.63784 17.6515C8.70838 17.7096 8.79551 17.7345 8.88264 17.7345C9.01127 17.7345 9.13574 17.6764 9.21873 17.5644L10.5714 15.7387C10.7083 15.552 10.6668 15.2947 10.4842 15.1578Z" fill="#FF4500"/>
<path d="M17.3138 15.1578C17.1271 15.0209 16.8699 15.0624 16.7329 15.2449L15.3803 17.0706C15.2434 17.2573 15.2849 17.5146 15.4674 17.6515C15.538 17.7096 15.6251 17.7345 15.7122 17.7345C15.8409 17.7345 15.9653 17.6764 16.0483 17.5644L17.401 15.7387C17.5379 15.552 17.4964 15.2947 17.3138 15.1578Z" fill="#FF4500"/>
<path d="M19.6995 5.61051C19.6041 5.47774 19.4423 5.4155 19.2804 5.4487C19.1394 5.47774 19.0232 5.47774 18.8489 5.47774C17.0648 5.47774 15.6125 4.02552 15.6125 2.24135C15.6125 1.64387 15.7453 1.12936 16.0358 0.61901C16.1146 0.482086 16.1063 0.30782 16.015 0.179194C15.9237 0.0505684 15.7661 -0.0199688 15.6084 0.00492649C13.7578 0.299521 12.372 1.76004 12.1521 3.5608C11.5463 3.3326 10.899 3.21227 10.2352 3.21227C8.20619 3.21227 6.35979 4.33256 5.42622 6.10012C5.08598 6.00054 4.70425 5.95075 4.28518 5.95075C2.04461 5.95075 0.218956 7.7764 0.218956 10.017C0.218956 12.2576 2.04461 14.0832 4.28518 14.0832H10.2393C13.2475 14.0832 15.6955 11.6352 15.6955 8.63114C15.6955 8.45688 15.6872 8.28261 15.6706 8.10834C15.8407 8.12494 16.015 8.13324 16.1934 8.13324C17.6788 8.13324 19.0024 7.35733 19.7327 6.05863C19.8074 5.91756 19.7949 5.74329 19.6995 5.61051ZM10.2352 13.2534H4.28104C2.49687 13.2534 1.04465 11.8011 1.04465 10.017C1.04465 8.23282 2.49687 6.78059 4.28104 6.78059C4.73745 6.78059 5.14822 6.85528 5.45941 7.0005C5.55899 7.04614 5.67517 7.05029 5.7789 7.0088C5.88263 6.96731 5.96562 6.88847 6.01126 6.78889C6.74567 5.12091 8.4012 4.04211 10.231 4.04211C12.4384 4.04211 14.2931 5.58562 14.7495 7.64363C14.7536 7.67682 14.7578 7.71002 14.7702 7.73906C14.8283 8.02951 14.8574 8.3241 14.8574 8.63114C14.8615 11.1788 12.7869 13.2534 10.2352 13.2534ZM16.1893 7.30339C15.9528 7.30339 15.7287 7.2868 15.513 7.2536C15.2682 6.34078 14.7868 5.50263 14.0898 4.80972C13.7454 4.46533 13.3637 4.17489 12.9529 3.93838C13.0027 2.65212 13.7952 1.54014 14.9528 1.05053C14.8408 1.42811 14.7868 1.81813 14.7868 2.24135C14.7868 4.37405 16.4382 6.13331 18.5336 6.29513C17.9319 6.93826 17.098 7.30339 16.1893 7.30339Z" fill="#FF4500"/>
</g>
<defs>
<clipPath id="clip0_101_14">
<rect width="20" height="20" fill="white"/>
</clipPath>
</defs>
</svg>
